<svg width="116" height="28" viewBox="0 0 116 28" fill="none" xmlns="http://www.w3.org/2000/svg">
<path d="M37.1009 21V6.45455H40.6165V12.2926H46.348V6.45455H49.8565V21H46.348V15.1548H40.6165V21H37.1009ZM54.1854 25.0909C53.7687 25.0909 53.3757 25.0578 53.0064 24.9915C52.6371 24.9299 52.3198 24.8471 52.0547 24.7429L52.8217 22.2216C53.1626 22.3352 53.4704 22.4015 53.745 22.4205C54.0244 22.4394 54.2635 22.3944 54.4624 22.2855C54.666 22.1813 54.8222 21.9943 54.9311 21.7244L55.0661 21.3977L51.1882 10.0909H54.8246L56.8345 17.875H56.9482L58.9865 10.0909H62.6442L58.532 22.044C58.3331 22.6406 58.0514 23.1662 57.6868 23.6207C57.3269 24.08 56.8606 24.4399 56.2876 24.7003C55.7195 24.9607 55.0187 25.0909 54.1854 25.0909ZM63.9759 25.0909V10.0909H67.4134V11.9588H67.5199C67.6619 11.6274 67.8632 11.3078 68.1236 11C68.3887 10.6922 68.7249 10.4413 69.1321 10.2472C69.544 10.0483 70.0365 9.94886 70.6094 9.94886C71.367 9.94886 72.0748 10.1477 72.733 10.5455C73.3958 10.9432 73.9309 11.5563 74.3381 12.3849C74.7453 13.2135 74.9489 14.2694 74.9489 15.5526C74.9489 16.7884 74.7524 17.8229 74.3594 18.6562C73.9711 19.4896 73.4455 20.1146 72.7827 20.5312C72.1245 20.9479 71.393 21.1562 70.5881 21.1562C70.0388 21.1562 69.563 21.0663 69.1605 20.8864C68.758 20.7064 68.4195 20.4697 68.1449 20.1761C67.875 19.8826 67.6667 19.5677 67.5199 19.2315H67.4489V25.0909H63.9759ZM67.3778 15.5455C67.3778 16.1326 67.456 16.6439 67.6122 17.0795C67.7732 17.5152 68.0028 17.8537 68.3011 18.0952C68.6042 18.3319 68.9664 18.4503 69.3878 18.4503C69.8139 18.4503 70.1761 18.3319 70.4744 18.0952C70.7727 17.8537 70.9976 17.5152 71.1491 17.0795C71.3054 16.6439 71.3835 16.1326 71.3835 15.5455C71.3835 14.9583 71.3054 14.4493 71.1491 14.0185C70.9976 13.5876 70.7727 13.2538 70.4744 13.017C70.1809 12.7803 69.8187 12.6619 69.3878 12.6619C68.9616 12.6619 68.5994 12.7779 68.3011 13.0099C68.0028 13.242 67.7732 13.5734 67.6122 14.0043C67.456 14.4351 67.3778 14.9489 67.3778 15.5455ZM81.8683 21.206C80.7272 21.206 79.7423 20.9811 78.9137 20.5312C78.0898 20.0767 77.4554 19.4304 77.0103 18.5923C76.57 17.7495 76.3498 16.7481 76.3498 15.5881C76.3498 14.4612 76.5723 13.4763 77.0174 12.6335C77.4625 11.786 78.0898 11.1278 78.8995 10.6591C79.7092 10.1856 80.6632 9.94886 81.7617 9.94886C82.5382 9.94886 83.2485 10.0696 83.8924 10.3111C84.5363 10.5526 85.0927 10.91 85.5614 11.3835C86.0302 11.857 86.3948 12.4418 86.6552 13.1378C86.9156 13.8291 87.0458 14.6222 87.0458 15.517V16.3835H77.5643V14.3665H83.8143C83.8095 13.9972 83.7219 13.6681 83.5515 13.3793C83.381 13.0904 83.1467 12.8655 82.8484 12.7045C82.5548 12.5388 82.2163 12.456 81.8327 12.456C81.4445 12.456 81.0965 12.5436 80.7887 12.7188C80.4809 12.8892 80.2371 13.1236 80.0572 13.4219C79.8772 13.7154 79.7826 14.0492 79.7731 14.4233V16.4759C79.7731 16.9209 79.8607 17.3116 80.0359 17.6477C80.2111 17.9792 80.4596 18.2372 80.7816 18.4219C81.1036 18.6065 81.4871 18.6989 81.9322 18.6989C82.2399 18.6989 82.5193 18.6562 82.7702 18.571C83.0212 18.4858 83.2366 18.3603 83.4165 18.1946C83.5965 18.0289 83.7314 17.8253 83.8214 17.5838L87.0103 17.6761C86.8777 18.3911 86.5865 19.0137 86.1367 19.544C85.6916 20.0696 85.1069 20.4792 84.3825 20.7727C83.658 21.0616 82.82 21.206 81.8683 21.206Z" fill="white"/>
<path d="M97.6193 6.45455H101.128V15.8366C101.128 16.9209 100.87 17.8655 100.354 18.6705C99.8376 19.4706 99.1179 20.0909 98.1946 20.5312C97.2713 20.9669 96.1989 21.1847 94.9773 21.1847C93.7415 21.1847 92.6619 20.9669 91.7386 20.5312C90.8153 20.0909 90.098 19.4706 89.5866 18.6705C89.0753 17.8655 88.8196 16.9209 88.8196 15.8366V6.45455H92.3352V15.5312C92.3352 16.0331 92.4441 16.4806 92.6619 16.8736C92.8845 17.2666 93.1946 17.5743 93.5923 17.7969C93.9901 18.0194 94.4517 18.1307 94.9773 18.1307C95.5028 18.1307 95.9621 18.0194 96.3551 17.7969C96.7528 17.5743 97.063 17.2666 97.2855 16.8736C97.508 16.4806 97.6193 16.0331 97.6193 15.5312V6.45455ZM103.331 25.0909V10.0909H106.769V11.9588H106.875C107.017 11.6274 107.219 11.3078 107.479 11C107.744 10.6922 108.08 10.4413 108.488 10.2472C108.9 10.0483 109.392 9.94886 109.965 9.94886C110.722 9.94886 111.43 10.1477 112.088 10.5455C112.751 10.9432 113.286 11.5563 113.694 12.3849C114.101 13.2135 114.304 14.2694 114.304 15.5526C114.304 16.7884 114.108 17.8229 113.715 18.6562C113.327 19.4896 112.801 20.1146 112.138 20.5312C111.48 20.9479 110.748 21.1562 109.944 21.1562C109.394 21.1562 108.918 21.0663 108.516 20.8864C108.114 20.7064 107.775 20.4697 107.5 20.1761C107.23 19.8826 107.022 19.5677 106.875 19.2315H106.804V25.0909H103.331ZM106.733 15.5455C106.733 16.1326 106.811 16.6439 106.968 17.0795C107.129 17.5152 107.358 17.8537 107.657 18.0952C107.96 18.3319 108.322 18.4503 108.743 18.4503C109.169 18.4503 109.532 18.3319 109.83 18.0952C110.128 17.8537 110.353 17.5152 110.505 17.0795C110.661 16.6439 110.739 16.1326 110.739 15.5455C110.739 14.9583 110.661 14.4493 110.505 14.0185C110.353 13.5876 110.128 13.2538 109.83 13.017C109.536 12.7803 109.174 12.6619 108.743 12.6619C108.317 12.6619 107.955 12.7779 107.657 13.0099C107.358 13.242 107.129 13.5734 106.968 14.0043C106.811 14.4351 106.733 14.9489 106.733 15.5455Z" fill="#7BC8AA"/>
<g filter="url(#filter0_i_9781_1123)">
<rect width="28" height="28" rx="3" fill="white"/>
</g>
<path d="M7.25 16.2427H16.25M7.25 9L7.25 23" stroke="#4A907A" stroke-width="3" stroke-linecap="round"/>
<path d="M17.25 5.71429V20M12.25 9.71429L17.2263 4L22.25 9.71429" stroke="#2D3E50" stroke-width="3" stroke-linecap="round" stroke-linejoin="round"/>
<defs>
<filter id="filter0_i_9781_1123" x="0" y="0" width="28" height="28" filterUnits="userSpaceOnUse" color-interpolation-filters="sRGB">
<feFlood flood-opacity="0" result="BackgroundImageFix"/>
<feBlend mode="normal" in="SourceGraphic" in2="BackgroundImageFix" result="shape"/>
<feColorMatrix in="SourceAlpha" type="matrix" values="0 0 0 0 0 0 0 0 0 0 0 0 0 0 0 0 0 0 127 0" result="hardAlpha"/>
<feOffset/>
<feGaussianBlur stdDeviation="2"/>
<feComposite in2="hardAlpha" operator="arithmetic" k2="-1" k3="1"/>
<feColorMatrix type="matrix" values="0 0 0 0 0.176471 0 0 0 0 0.243137 0 0 0 0 0.313726 0 0 0 0.16 0"/>
<feBlend mode="normal" in2="shape" result="effect1_innerShadow_9781_1123"/>
</filter>
</defs>
</svg>
