<svg width="383" height="130" viewBox="0 0 383 130" fill="none" xmlns="http://www.w3.org/2000/svg">
<path d="M101.5 66.3415V32H109.697V45.7835H123.06V32H131.24V66.3415H123.06V52.5412H109.697V66.3415H101.5Z" fill="#4A907A"/>
<path d="M141.333 76C140.361 76 139.445 75.9217 138.584 75.7652C137.723 75.6199 136.983 75.4243 136.365 75.1784L138.153 69.2256C138.948 69.4939 139.666 69.6504 140.306 69.6951C140.957 69.7398 141.515 69.6336 141.978 69.3765C142.453 69.1306 142.817 68.689 143.071 68.0518L143.386 67.2805L134.345 40.5854H142.823L147.509 58.9634H147.774L152.526 40.5854H161.054L151.467 68.8064C151.003 70.2149 150.346 71.4558 149.496 72.529C148.657 73.6133 147.57 74.4629 146.234 75.0777C144.909 75.6926 143.275 76 141.333 76Z" fill="#4A907A"/>
<path d="M164.159 76V40.5854H172.174V44.9954H172.422C172.753 44.2129 173.222 43.4583 173.83 42.7317C174.448 42.0051 175.232 41.4126 176.181 40.9543C177.141 40.4848 178.289 40.25 179.625 40.25C181.391 40.25 183.042 40.7195 184.576 41.6585C186.122 42.5976 187.369 44.0452 188.319 46.0015C189.268 47.9578 189.743 50.4507 189.743 53.4802C189.743 56.3979 189.285 58.8404 188.368 60.8079C187.463 62.7754 186.238 64.251 184.692 65.2348C183.158 66.2185 181.452 66.7104 179.575 66.7104C178.295 66.7104 177.185 66.498 176.247 66.0732C175.309 65.6484 174.519 65.0894 173.879 64.3963C173.25 63.7033 172.764 62.9599 172.422 62.1662H172.256V76H164.159ZM172.091 53.4634C172.091 54.8496 172.273 56.0569 172.637 57.0854C173.013 58.1138 173.548 58.9131 174.243 59.4832C174.95 60.0422 175.795 60.3216 176.777 60.3216C177.771 60.3216 178.615 60.0422 179.311 59.4832C180.006 58.9131 180.53 58.1138 180.884 57.0854C181.248 56.0569 181.43 54.8496 181.43 53.4634C181.43 52.0772 181.248 50.8755 180.884 49.8582C180.53 48.841 180.006 48.0528 179.311 47.4939C178.626 46.935 177.782 46.6555 176.777 46.6555C175.783 46.6555 174.939 46.9294 174.243 47.4771C173.548 48.0249 173.013 48.8074 172.637 49.8247C172.273 50.842 172.091 52.0549 172.091 53.4634Z" fill="#4A907A"/>
<path d="M205.875 66.8277C203.215 66.8277 200.919 66.2967 198.987 65.2348C197.066 64.1616 195.587 62.6357 194.549 60.657C193.522 58.6672 193.009 56.3028 193.009 53.564C193.009 50.9035 193.528 48.5783 194.565 46.5884C195.603 44.5874 197.066 43.0335 198.954 41.9268C200.841 40.8089 203.066 40.25 205.627 40.25C207.437 40.25 209.093 40.5351 210.595 41.1052C212.096 41.6753 213.393 42.5193 214.486 43.6372C215.579 44.7551 216.429 46.1357 217.036 47.779C217.643 49.4111 217.947 51.2835 217.947 53.3963V55.4421H195.841V50.6799H210.412C210.401 49.8079 210.197 49.031 209.8 48.3491C209.402 47.6672 208.856 47.1362 208.16 46.7561C207.476 46.3648 206.687 46.1692 205.792 46.1692C204.887 46.1692 204.076 46.376 203.358 46.7896C202.641 47.1921 202.072 47.7454 201.653 48.4497C201.233 49.1428 201.012 49.9309 200.99 50.814V55.6601C200.99 56.7109 201.195 57.6331 201.603 58.4268C202.011 59.2093 202.591 59.8186 203.342 60.2546C204.092 60.6905 204.987 60.9085 206.024 60.9085C206.742 60.9085 207.393 60.8079 207.978 60.6067C208.563 60.4055 209.066 60.1092 209.485 59.718C209.905 59.3267 210.219 58.846 210.429 58.2759L217.864 58.4939C217.555 60.1819 216.876 61.6519 215.827 62.904C214.789 64.1448 213.426 65.1118 211.737 65.8049C210.048 66.4868 208.094 66.8277 205.875 66.8277Z" fill="#4A907A"/>
<path d="M242.599 32H250.779V54.1509C250.779 56.7109 250.177 58.9411 248.974 60.8415C247.771 62.7307 246.093 64.1951 243.94 65.2348C241.787 66.2632 239.287 66.7774 236.439 66.7774C233.558 66.7774 231.041 66.2632 228.888 65.2348C226.735 64.1951 225.063 62.7307 223.871 60.8415C222.678 58.9411 222.082 56.7109 222.082 54.1509V32H230.279V53.4299C230.279 54.6148 230.533 55.6712 231.041 56.5991C231.56 57.5269 232.283 58.2536 233.21 58.779C234.137 59.3044 235.214 59.5671 236.439 59.5671C237.664 59.5671 238.735 59.3044 239.651 58.779C240.579 58.2536 241.302 57.5269 241.821 56.5991C242.339 55.6712 242.599 54.6148 242.599 53.4299V32Z" fill="#2D3E50"/>
<path d="M255.916 76V40.5854H263.931V44.9954H264.179C264.511 44.2129 264.98 43.4583 265.587 42.7317C266.205 42.0051 266.989 41.4126 267.938 40.9543C268.899 40.4848 270.047 40.25 271.382 40.25C273.149 40.25 274.799 40.7195 276.334 41.6585C277.879 42.5976 279.127 44.0452 280.076 46.0015C281.025 47.9578 281.5 50.4507 281.5 53.4802C281.5 56.3979 281.042 58.8404 280.126 60.8079C279.22 62.7754 277.995 64.251 276.45 65.2348C274.915 66.2185 273.209 66.7104 271.333 66.7104C270.052 66.7104 268.943 66.498 268.004 66.0732C267.066 65.6484 266.277 65.0894 265.637 64.3963C265.007 63.7033 264.522 62.9599 264.179 62.1662H264.014V76H255.916ZM263.848 53.4634C263.848 54.8496 264.03 56.0569 264.395 57.0854C264.77 58.1138 265.305 58.9131 266.001 59.4832C266.707 60.0422 267.552 60.3216 268.534 60.3216C269.528 60.3216 270.372 60.0422 271.068 59.4832C271.763 58.9131 272.288 58.1138 272.641 57.0854C273.005 56.0569 273.187 54.8496 273.187 53.4634C273.187 52.0772 273.005 50.8755 272.641 49.8582C272.288 48.841 271.763 48.0528 271.068 47.4939C270.383 46.935 269.539 46.6555 268.534 46.6555C267.541 46.6555 266.696 46.9294 266.001 47.4771C265.305 48.0249 264.77 48.8074 264.395 49.8247C264.03 50.842 263.848 52.0549 263.848 53.4634Z" fill="#2D3E50"/>
<path d="M91.4609 106H87.87V94.3636H91.62C92.7488 94.3636 93.7147 94.5966 94.5178 95.0625C95.3208 95.5246 95.9363 96.1894 96.3643 97.0568C96.7924 97.9205 97.0064 98.9545 97.0064 100.159C97.0064 101.371 96.7905 102.415 96.3587 103.29C95.9268 104.161 95.2981 104.831 94.4723 105.301C93.6465 105.767 92.6428 106 91.4609 106ZM89.2791 104.75H91.37C92.3321 104.75 93.1295 104.564 93.7621 104.193C94.3946 103.822 94.8662 103.294 95.1768 102.608C95.4875 101.922 95.6428 101.106 95.6428 100.159C95.6428 99.2197 95.4893 98.411 95.1825 97.733C94.8757 97.0511 94.4174 96.5284 93.8075 96.1648C93.1977 95.7973 92.4382 95.6136 91.5291 95.6136H89.2791V104.75ZM102.734 106.182C101.946 106.182 101.254 105.994 100.66 105.619C100.069 105.244 99.6068 104.72 99.2734 104.045C98.9439 103.371 98.7791 102.583 98.7791 101.682C98.7791 100.773 98.9439 99.9792 99.2734 99.3011C99.6068 98.6231 100.069 98.0966 100.66 97.7216C101.254 97.3466 101.946 97.1591 102.734 97.1591C103.522 97.1591 104.211 97.3466 104.802 97.7216C105.397 98.0966 105.859 98.6231 106.188 99.3011C106.522 99.9792 106.688 100.773 106.688 101.682C106.688 102.583 106.522 103.371 106.188 104.045C105.859 104.72 105.397 105.244 104.802 105.619C104.211 105.994 103.522 106.182 102.734 106.182ZM102.734 104.977C103.332 104.977 103.825 104.824 104.211 104.517C104.597 104.21 104.883 103.807 105.069 103.307C105.254 102.807 105.347 102.265 105.347 101.682C105.347 101.098 105.254 100.555 105.069 100.051C104.883 99.5473 104.597 99.1402 104.211 98.8295C103.825 98.5189 103.332 98.3636 102.734 98.3636C102.135 98.3636 101.643 98.5189 101.256 98.8295C100.87 99.1402 100.584 99.5473 100.398 100.051C100.213 100.555 100.12 101.098 100.12 101.682C100.12 102.265 100.213 102.807 100.398 103.307C100.584 103.807 100.87 104.21 101.256 104.517C101.643 104.824 102.135 104.977 102.734 104.977ZM117.031 97.2727V98.4091H112.508V97.2727H117.031ZM113.826 95.1818H115.167V103.5C115.167 103.879 115.222 104.163 115.332 104.352C115.445 104.538 115.589 104.663 115.763 104.727C115.942 104.788 116.129 104.818 116.326 104.818C116.474 104.818 116.595 104.811 116.69 104.795C116.784 104.777 116.86 104.761 116.917 104.75L117.19 105.955C117.099 105.989 116.972 106.023 116.809 106.057C116.646 106.095 116.44 106.114 116.19 106.114C115.811 106.114 115.44 106.032 115.076 105.869C114.716 105.706 114.417 105.458 114.178 105.125C113.943 104.792 113.826 104.371 113.826 103.864V95.1818ZM120.576 100.75V106H119.235V94.3636H120.576V98.6364H120.69C120.894 98.1856 121.201 97.8277 121.61 97.5625C122.023 97.2936 122.572 97.1591 123.258 97.1591C123.853 97.1591 124.373 97.2784 124.82 97.517C125.267 97.7519 125.614 98.1136 125.86 98.6023C126.11 99.0871 126.235 99.7045 126.235 100.455V106H124.894V100.545C124.894 99.8523 124.714 99.3163 124.354 98.9375C123.998 98.5549 123.504 98.3636 122.871 98.3636C122.432 98.3636 122.038 98.4564 121.69 98.642C121.345 98.8277 121.072 99.0985 120.871 99.4545C120.674 99.8106 120.576 100.242 120.576 100.75ZM132.347 106.182C131.506 106.182 130.781 105.996 130.171 105.625C129.565 105.25 129.097 104.727 128.768 104.057C128.442 103.383 128.279 102.598 128.279 101.705C128.279 100.811 128.442 100.023 128.768 99.3409C129.097 98.6553 129.556 98.1212 130.143 97.7386C130.734 97.3523 131.423 97.1591 132.211 97.1591C132.665 97.1591 133.114 97.2348 133.558 97.3864C134.001 97.5379 134.404 97.7841 134.768 98.125C135.131 98.4621 135.421 98.9091 135.637 99.4659C135.853 100.023 135.961 100.708 135.961 101.523V102.091H129.234V100.932H134.597C134.597 100.439 134.499 100 134.302 99.6136C134.109 99.2273 133.832 98.9223 133.472 98.6989C133.116 98.4754 132.696 98.3636 132.211 98.3636C131.677 98.3636 131.215 98.4962 130.825 98.7614C130.438 99.0227 130.141 99.3636 129.933 99.7841C129.724 100.205 129.62 100.655 129.62 101.136V101.909C129.62 102.568 129.734 103.127 129.961 103.585C130.192 104.04 130.512 104.386 130.921 104.625C131.33 104.86 131.806 104.977 132.347 104.977C132.7 104.977 133.018 104.928 133.302 104.83C133.59 104.727 133.838 104.576 134.046 104.375C134.254 104.17 134.415 103.917 134.529 103.614L135.825 103.977C135.688 104.417 135.459 104.803 135.137 105.136C134.815 105.466 134.417 105.723 133.944 105.909C133.47 106.091 132.938 106.182 132.347 106.182ZM146.296 97.2727V98.4091H141.773V97.2727H146.296ZM143.092 95.1818H144.433V103.5C144.433 103.879 144.487 104.163 144.597 104.352C144.711 104.538 144.855 104.663 145.029 104.727C145.207 104.788 145.395 104.818 145.592 104.818C145.739 104.818 145.861 104.811 145.955 104.795C146.05 104.777 146.126 104.761 146.183 104.75L146.455 105.955C146.364 105.989 146.237 106.023 146.075 106.057C145.912 106.095 145.705 106.114 145.455 106.114C145.076 106.114 144.705 106.032 144.342 105.869C143.982 105.706 143.683 105.458 143.444 105.125C143.209 104.792 143.092 104.371 143.092 103.864V95.1818ZM149.842 100.75V106H148.501V94.3636H149.842V98.6364H149.955C150.16 98.1856 150.467 97.8277 150.876 97.5625C151.289 97.2936 151.838 97.1591 152.523 97.1591C153.118 97.1591 153.639 97.2784 154.086 97.517C154.533 97.7519 154.879 98.1136 155.126 98.6023C155.376 99.0871 155.501 99.7045 155.501 100.455V106H154.16V100.545C154.16 99.8523 153.98 99.3163 153.62 98.9375C153.264 98.5549 152.77 98.3636 152.137 98.3636C151.698 98.3636 151.304 98.4564 150.955 98.642C150.611 98.8277 150.338 99.0985 150.137 99.4545C149.94 99.8106 149.842 100.242 149.842 100.75ZM157.954 106V97.2727H159.295V106H157.954ZM158.636 95.8182C158.374 95.8182 158.149 95.7292 157.96 95.5511C157.774 95.3731 157.681 95.1591 157.681 94.9091C157.681 94.6591 157.774 94.4451 157.96 94.267C158.149 94.089 158.374 94 158.636 94C158.897 94 159.121 94.089 159.306 94.267C159.496 94.4451 159.59 94.6591 159.59 94.9091C159.59 95.1591 159.496 95.3731 159.306 95.5511C159.121 95.7292 158.897 95.8182 158.636 95.8182ZM163.092 100.75V106H161.751V97.2727H163.046V98.6364H163.16C163.364 98.1932 163.675 97.8371 164.092 97.5682C164.508 97.2955 165.046 97.1591 165.705 97.1591C166.296 97.1591 166.813 97.2803 167.256 97.5227C167.7 97.7614 168.044 98.125 168.29 98.6136C168.537 99.0985 168.66 99.7121 168.66 100.455V106H167.319V100.545C167.319 99.8598 167.141 99.3258 166.785 98.9432C166.429 98.5568 165.94 98.3636 165.319 98.3636C164.891 98.3636 164.508 98.4564 164.171 98.642C163.838 98.8277 163.575 99.0985 163.381 99.4545C163.188 99.8106 163.092 100.242 163.092 100.75ZM174.633 109.455C173.985 109.455 173.428 109.371 172.962 109.205C172.496 109.042 172.108 108.826 171.798 108.557C171.491 108.292 171.246 108.008 171.065 107.705L172.133 106.955C172.254 107.114 172.407 107.295 172.593 107.5C172.779 107.708 173.032 107.888 173.354 108.04C173.68 108.195 174.106 108.273 174.633 108.273C175.337 108.273 175.919 108.102 176.377 107.761C176.835 107.42 177.065 106.886 177.065 106.159V104.386H176.951C176.853 104.545 176.712 104.742 176.531 104.977C176.353 105.208 176.095 105.415 175.758 105.597C175.424 105.775 174.974 105.864 174.406 105.864C173.701 105.864 173.068 105.697 172.508 105.364C171.951 105.03 171.51 104.545 171.184 103.909C170.862 103.273 170.701 102.5 170.701 101.591C170.701 100.697 170.858 99.9186 171.173 99.2557C171.487 98.589 171.924 98.0739 172.485 97.7102C173.046 97.3428 173.693 97.1591 174.428 97.1591C174.996 97.1591 175.447 97.2538 175.781 97.4432C176.118 97.6288 176.375 97.8409 176.553 98.0795C176.735 98.3144 176.875 98.5076 176.974 98.6591H177.11V97.2727H178.406V106.25C178.406 107 178.235 107.61 177.894 108.08C177.557 108.553 177.103 108.9 176.531 109.119C175.962 109.343 175.33 109.455 174.633 109.455ZM174.587 104.659C175.125 104.659 175.58 104.536 175.951 104.29C176.322 104.044 176.604 103.689 176.798 103.227C176.991 102.765 177.087 102.212 177.087 101.568C177.087 100.939 176.993 100.384 176.803 99.9034C176.614 99.4223 176.334 99.0455 175.962 98.7727C175.591 98.5 175.133 98.3636 174.587 98.3636C174.019 98.3636 173.546 98.5076 173.167 98.7955C172.792 99.0833 172.51 99.4697 172.32 99.9545C172.135 100.439 172.042 100.977 172.042 101.568C172.042 102.174 172.137 102.71 172.326 103.176C172.519 103.638 172.803 104.002 173.178 104.267C173.557 104.528 174.027 104.659 174.587 104.659ZM181.837 106.091C181.557 106.091 181.317 105.991 181.116 105.79C180.915 105.589 180.815 105.348 180.815 105.068C180.815 104.788 180.915 104.547 181.116 104.347C181.317 104.146 181.557 104.045 181.837 104.045C182.118 104.045 182.358 104.146 182.559 104.347C182.76 104.547 182.86 104.788 182.86 105.068C182.86 105.254 182.813 105.424 182.718 105.58C182.627 105.735 182.504 105.86 182.349 105.955C182.197 106.045 182.027 106.091 181.837 106.091ZM196.312 97.2727C196.244 96.697 195.967 96.25 195.482 95.9318C194.997 95.6136 194.403 95.4545 193.698 95.4545C193.183 95.4545 192.732 95.5379 192.346 95.7045C191.963 95.8712 191.664 96.1004 191.448 96.392C191.236 96.6837 191.13 97.0152 191.13 97.3864C191.13 97.697 191.204 97.964 191.352 98.1875C191.503 98.4072 191.696 98.5909 191.931 98.7386C192.166 98.8826 192.412 99.0019 192.67 99.0966C192.927 99.1875 193.164 99.2614 193.38 99.3182L194.562 99.6364C194.865 99.7159 195.202 99.8258 195.573 99.9659C195.948 100.106 196.306 100.297 196.647 100.54C196.992 100.778 197.276 101.085 197.499 101.46C197.723 101.835 197.835 102.295 197.835 102.841C197.835 103.47 197.67 104.038 197.34 104.545C197.014 105.053 196.537 105.456 195.908 105.756C195.283 106.055 194.524 106.205 193.63 106.205C192.797 106.205 192.075 106.07 191.465 105.801C190.859 105.532 190.382 105.157 190.033 104.676C189.689 104.195 189.494 103.636 189.448 103H190.903C190.941 103.439 191.088 103.803 191.346 104.091C191.607 104.375 191.937 104.587 192.335 104.727C192.736 104.864 193.168 104.932 193.63 104.932C194.168 104.932 194.651 104.845 195.079 104.67C195.507 104.492 195.846 104.246 196.096 103.932C196.346 103.614 196.471 103.242 196.471 102.818C196.471 102.432 196.363 102.117 196.147 101.875C195.931 101.633 195.647 101.436 195.295 101.284C194.942 101.133 194.562 101 194.153 100.886L192.721 100.477C191.812 100.216 191.092 99.8428 190.562 99.358C190.031 98.8731 189.766 98.2386 189.766 97.4545C189.766 96.803 189.942 96.2348 190.295 95.75C190.651 95.2614 191.128 94.8826 191.727 94.6136C192.329 94.3409 193.001 94.2045 193.744 94.2045C194.494 94.2045 195.16 94.339 195.744 94.608C196.327 94.8731 196.789 95.2367 197.13 95.6989C197.475 96.161 197.656 96.6856 197.675 97.2727H196.312ZM201.31 100.75V106H199.969V94.3636H201.31V98.6364H201.424C201.629 98.1856 201.935 97.8277 202.344 97.5625C202.757 97.2936 203.307 97.1591 203.992 97.1591C204.587 97.1591 205.108 97.2784 205.555 97.517C206.002 97.7519 206.348 98.1136 206.594 98.6023C206.844 99.0871 206.969 99.7045 206.969 100.455V106H205.629V100.545C205.629 99.8523 205.449 99.3163 205.089 98.9375C204.733 98.5549 204.238 98.3636 203.606 98.3636C203.166 98.3636 202.772 98.4564 202.424 98.642C202.079 98.8277 201.807 99.0985 201.606 99.4545C201.409 99.8106 201.31 100.242 201.31 100.75ZM211.991 106.205C211.438 106.205 210.936 106.1 210.485 105.892C210.034 105.68 209.676 105.375 209.411 104.977C209.146 104.576 209.013 104.091 209.013 103.523C209.013 103.023 209.112 102.617 209.309 102.307C209.506 101.992 209.769 101.746 210.099 101.568C210.428 101.39 210.792 101.258 211.19 101.17C211.591 101.08 211.995 101.008 212.4 100.955C212.93 100.886 213.36 100.835 213.69 100.801C214.023 100.763 214.265 100.701 214.417 100.614C214.572 100.527 214.65 100.375 214.65 100.159V100.114C214.65 99.553 214.496 99.1174 214.19 98.8068C213.887 98.4962 213.426 98.3409 212.809 98.3409C212.169 98.3409 211.667 98.4811 211.303 98.7614C210.94 99.0417 210.684 99.3409 210.536 99.6591L209.263 99.2045C209.491 98.6742 209.794 98.2614 210.173 97.9659C210.555 97.6667 210.972 97.4583 211.423 97.3409C211.877 97.2197 212.324 97.1591 212.763 97.1591C213.044 97.1591 213.366 97.1932 213.729 97.2614C214.097 97.3258 214.451 97.4602 214.792 97.6648C215.137 97.8693 215.423 98.178 215.65 98.5909C215.877 99.0038 215.991 99.5568 215.991 100.25V106H214.65V104.818H214.582C214.491 105.008 214.339 105.21 214.127 105.426C213.915 105.642 213.633 105.826 213.281 105.977C212.928 106.129 212.498 106.205 211.991 106.205ZM212.195 105C212.726 105 213.173 104.896 213.536 104.688C213.904 104.479 214.18 104.21 214.366 103.881C214.555 103.551 214.65 103.205 214.65 102.841V101.614C214.593 101.682 214.468 101.744 214.275 101.801C214.085 101.854 213.866 101.902 213.616 101.943C213.37 101.981 213.129 102.015 212.894 102.045C212.663 102.072 212.476 102.095 212.332 102.114C211.983 102.159 211.657 102.233 211.354 102.335C211.055 102.434 210.813 102.583 210.627 102.784C210.445 102.981 210.354 103.25 210.354 103.591C210.354 104.057 210.527 104.409 210.871 104.648C211.22 104.883 211.661 105 212.195 105ZM218.438 106V97.2727H219.734V98.5909H219.825C219.984 98.1591 220.272 97.8087 220.688 97.5398C221.105 97.2708 221.575 97.1364 222.097 97.1364C222.196 97.1364 222.319 97.1383 222.467 97.142C222.614 97.1458 222.726 97.1515 222.802 97.1591V98.5227C222.756 98.5114 222.652 98.4943 222.489 98.4716C222.33 98.4451 222.162 98.4318 221.984 98.4318C221.559 98.4318 221.181 98.5208 220.847 98.6989C220.518 98.8731 220.256 99.1155 220.063 99.4261C219.874 99.733 219.779 100.083 219.779 100.477V106H218.438ZM227.785 106.182C226.944 106.182 226.219 105.996 225.609 105.625C225.003 105.25 224.535 104.727 224.205 104.057C223.879 103.383 223.717 102.598 223.717 101.705C223.717 100.811 223.879 100.023 224.205 99.3409C224.535 98.6553 224.993 98.1212 225.58 97.7386C226.171 97.3523 226.861 97.1591 227.648 97.1591C228.103 97.1591 228.552 97.2348 228.995 97.3864C229.438 97.5379 229.842 97.7841 230.205 98.125C230.569 98.4621 230.859 98.9091 231.075 99.4659C231.29 100.023 231.398 100.708 231.398 101.523V102.091H224.671V100.932H230.035C230.035 100.439 229.936 100 229.739 99.6136C229.546 99.2273 229.27 98.9223 228.91 98.6989C228.554 98.4754 228.133 98.3636 227.648 98.3636C227.114 98.3636 226.652 98.4962 226.262 98.7614C225.876 99.0227 225.578 99.3636 225.37 99.7841C225.162 100.205 225.058 100.655 225.058 101.136V101.909C225.058 102.568 225.171 103.127 225.398 103.585C225.629 104.04 225.95 104.386 226.359 104.625C226.768 104.86 227.243 104.977 227.785 104.977C228.137 104.977 228.455 104.928 228.739 104.83C229.027 104.727 229.275 104.576 229.484 104.375C229.692 104.17 229.853 103.917 229.967 103.614L231.262 103.977C231.126 104.417 230.897 104.803 230.575 105.136C230.253 105.466 229.855 105.723 229.381 105.909C228.908 106.091 228.376 106.182 227.785 106.182ZM241.734 97.2727V98.4091H237.211V97.2727H241.734ZM238.529 95.1818H239.87V103.5C239.87 103.879 239.925 104.163 240.035 104.352C240.148 104.538 240.292 104.663 240.467 104.727C240.645 104.788 240.832 104.818 241.029 104.818C241.177 104.818 241.298 104.811 241.393 104.795C241.487 104.777 241.563 104.761 241.62 104.75L241.893 105.955C241.802 105.989 241.675 106.023 241.512 106.057C241.349 106.095 241.143 106.114 240.893 106.114C240.514 106.114 240.143 106.032 239.779 105.869C239.419 105.706 239.12 105.458 238.881 105.125C238.647 104.792 238.529 104.371 238.529 103.864V95.1818ZM245.279 100.75V106H243.938V94.3636H245.279V98.6364H245.393C245.597 98.1856 245.904 97.8277 246.313 97.5625C246.726 97.2936 247.275 97.1591 247.961 97.1591C248.556 97.1591 249.076 97.2784 249.523 97.517C249.97 97.7519 250.317 98.1136 250.563 98.6023C250.813 99.0871 250.938 99.7045 250.938 100.455V106H249.597V100.545C249.597 99.8523 249.417 99.3163 249.058 98.9375C248.701 98.5549 248.207 98.3636 247.575 98.3636C247.135 98.3636 246.741 98.4564 246.393 98.642C246.048 98.8277 245.775 99.0985 245.575 99.4545C245.378 99.8106 245.279 100.242 245.279 100.75ZM257.05 106.182C256.21 106.182 255.484 105.996 254.874 105.625C254.268 105.25 253.8 104.727 253.471 104.057C253.145 103.383 252.982 102.598 252.982 101.705C252.982 100.811 253.145 100.023 253.471 99.3409C253.8 98.6553 254.259 98.1212 254.846 97.7386C255.437 97.3523 256.126 97.1591 256.914 97.1591C257.369 97.1591 257.817 97.2348 258.261 97.3864C258.704 97.5379 259.107 97.7841 259.471 98.125C259.835 98.4621 260.124 98.9091 260.34 99.4659C260.556 100.023 260.664 100.708 260.664 101.523V102.091H253.937V100.932H259.3C259.3 100.439 259.202 100 259.005 99.6136C258.812 99.2273 258.535 98.9223 258.175 98.6989C257.819 98.4754 257.399 98.3636 256.914 98.3636C256.38 98.3636 255.918 98.4962 255.528 98.7614C255.141 99.0227 254.844 99.3636 254.636 99.7841C254.427 100.205 254.323 100.655 254.323 101.136V101.909C254.323 102.568 254.437 103.127 254.664 103.585C254.895 104.04 255.215 104.386 255.624 104.625C256.033 104.86 256.509 104.977 257.05 104.977C257.403 104.977 257.721 104.928 258.005 104.83C258.293 104.727 258.541 104.576 258.749 104.375C258.958 104.17 259.119 103.917 259.232 103.614L260.528 103.977C260.391 104.417 260.162 104.803 259.84 105.136C259.518 105.466 259.121 105.723 258.647 105.909C258.174 106.091 257.641 106.182 257.05 106.182ZM269.181 106L266.522 97.2727H267.931L269.817 103.955H269.908L271.772 97.2727H273.204L275.045 103.932H275.136L277.022 97.2727H278.431L275.772 106H274.454L272.545 99.2955H272.408L270.499 106H269.181ZM280.204 106V97.2727H281.545V106H280.204ZM280.886 95.8182C280.624 95.8182 280.399 95.7292 280.21 95.5511C280.024 95.3731 279.931 95.1591 279.931 94.9091C279.931 94.6591 280.024 94.4451 280.21 94.267C280.399 94.089 280.624 94 280.886 94C281.147 94 281.371 94.089 281.556 94.267C281.746 94.4451 281.84 94.6591 281.84 94.9091C281.84 95.1591 281.746 95.3731 281.556 95.5511C281.371 95.7292 281.147 95.8182 280.886 95.8182ZM285.342 100.75V106H284.001V97.2727H285.296V98.6364H285.41C285.614 98.1932 285.925 97.8371 286.342 97.5682C286.758 97.2955 287.296 97.1591 287.955 97.1591C288.546 97.1591 289.063 97.2803 289.506 97.5227C289.95 97.7614 290.294 98.125 290.54 98.6136C290.787 99.0985 290.91 99.7121 290.91 100.455V106H289.569V100.545C289.569 99.8598 289.391 99.3258 289.035 98.9432C288.679 98.5568 288.19 98.3636 287.569 98.3636C287.141 98.3636 286.758 98.4564 286.421 98.642C286.088 98.8277 285.825 99.0985 285.631 99.4545C285.438 99.8106 285.342 100.242 285.342 100.75ZM294.337 106.091C294.057 106.091 293.817 105.991 293.616 105.79C293.415 105.589 293.315 105.348 293.315 105.068C293.315 104.788 293.415 104.547 293.616 104.347C293.817 104.146 294.057 104.045 294.337 104.045C294.618 104.045 294.858 104.146 295.059 104.347C295.26 104.547 295.36 104.788 295.36 105.068C295.36 105.254 295.313 105.424 295.218 105.58C295.127 105.735 295.004 105.86 294.849 105.955C294.697 106.045 294.527 106.091 294.337 106.091Z" fill="#5A7A6A"/>
</svg>
